<svg width="167" height="33" viewBox="0 0 167 33" fill="none" xmlns="http://www.w3.org/2000/svg">
<g clip-path="url(#clip0_3_37)">
<path d="M16.5668 25.2182L13.4569 32.681L0.163696 1.48752H6.12993L16.5668 25.2182Z" fill="#FBAE2D"/>
<path d="M13.4601 32.9558L13.3574 32.7189L0 1.37381H6.20052L16.6856 25.2182L13.4601 32.9558ZM0.327357 1.59489L13.4569 32.3999L16.4513 25.2182L6.05931 1.59489H0.327357Z" fill="#FBAE2D"/>
<path d="M32.0938 25.2182L28.9005 32.7221L20.8064 13.6055L17.3114 22.0726L14.5 15.5731L20.9316 0.271606L32.0938 25.2182Z" fill="#FBAE2D"/>
<path d="M28.9004 33L20.8064 13.8866L17.3146 22.3537L14.3844 15.5857V15.5446L20.9155 0.00946045L32.2157 25.2182L28.9004 33ZM20.8064 13.3244L28.9004 32.4441L31.9911 25.2182L20.9508 0.546358L14.6187 15.5857L17.3114 21.8073L20.8064 13.3244Z" fill="#FBAE2D"/>
<path d="M29.8151 15.2794L35.5663 1.48752H41.7027L32.8833 22.199L29.8151 15.2794Z" fill="url(#paint0_linear_3_37)"/>
<path d="M32.8865 22.4737L29.6964 15.2699L35.4957 1.37381H41.8663L41.8022 1.52225L32.8865 22.4737ZM29.9339 15.2699L32.8833 21.9179L41.5486 1.58541H35.6401L29.9339 15.2699Z" fill="url(#paint1_linear_3_37)"/>
<path d="M49.1901 7.05856V12.9328H61.9731V18.5102H49.1356V25.7204H64.8134V31.2977H43.5256V1.49066H64.8262V7.05856H49.1901Z" fill="#FBAE2D"/>
<path d="M64.9354 31.4051H43.4165V1.37381H64.9354V7.16278H49.2993V12.816H62.0822V18.6176H49.2447V25.613H64.9225L64.9354 31.4051ZM43.6347 31.1903H64.7267V25.8214H49.0393V18.4028H61.8768V13.0339H49.0842V6.9575H64.7267V1.58856H43.6347V31.1903Z" fill="#FBAE2D"/>
<path d="M90.4692 3.75194V10.8484C89.3675 9.55905 87.9919 8.52317 86.4393 7.81379C84.8866 7.10442 83.1947 6.73881 81.4829 6.74275C80.1345 6.72674 78.7962 6.9742 77.5457 7.47078C76.2951 7.96736 75.1571 8.7032 74.1976 9.63566C72.6108 11.1558 71.5929 13.1591 71.3092 15.3204H65.6896C66.0305 11.6388 67.6568 8.18707 70.2918 5.55212C71.7556 4.09407 73.5008 2.93869 75.4249 2.15389C77.3489 1.3691 79.413 0.970736 81.4958 0.982205C87.3593 0.985363 90.4692 3.75194 90.4692 3.75194ZM90.4692 22.5337V29.286C87.8338 31.0948 84.696 32.0609 81.4829 32.0525C79.3768 32.0415 77.2929 31.6285 75.3466 30.8366C73.4654 30.0512 71.7582 28.9119 70.3207 27.4826C68.8616 26.0806 67.6903 24.4155 66.8706 22.578C66.2035 21.0324 65.8001 19.3891 65.6767 17.7143H71.2996C71.5743 19.8783 72.5937 21.8844 74.188 23.3991C76.1543 25.2336 78.7637 26.2517 81.4733 26.2415C88.2098 26.2667 90.4692 22.5337 90.4692 22.5337Z" fill="#FBAE2D"/>
<path d="M81.4797 32.1599C79.3648 32.1449 77.2726 31.7288 75.3177 30.9345C73.4219 30.1454 71.7022 28.9972 70.2565 27.5553C68.7856 26.1462 67.6063 24.4699 66.7839 22.619C66.1119 21.0624 65.7053 19.4074 65.5804 17.7206V17.607H71.4183V17.6985C71.6825 19.8466 72.694 21.8384 74.281 23.3359C76.2232 25.1596 78.808 26.1717 81.4925 26.1593C88.0846 26.1593 90.3664 22.518 90.3889 22.4801L90.5911 22.1453V29.3365L90.5494 29.3681C87.8865 31.1877 84.7216 32.162 81.4797 32.1599V32.1599ZM65.7922 17.8217C65.9243 19.4449 66.3232 21.0363 66.9733 22.5337C67.7845 24.3602 68.9486 26.0142 70.4009 27.4037C71.8241 28.8292 73.5188 29.9646 75.3883 30.7451C77.323 31.5298 79.3935 31.9395 81.4861 31.9515C84.6564 31.9487 87.7519 31.0031 90.3665 29.2386V22.8748C89.8564 23.5027 89.2487 24.0473 88.566 24.4887C87.2822 25.3477 84.9907 26.3836 81.4861 26.3836C78.7415 26.3918 76.1008 25.3513 74.1206 23.4812C72.5167 21.9699 71.4871 19.9637 71.2033 17.7964L65.7922 17.8217ZM71.3926 15.431H65.5547V15.3173C65.6826 13.6397 66.1039 11.9965 66.8 10.46C67.5749 8.58858 68.7317 6.89349 70.1987 5.47948C72.5254 3.22003 75.4914 1.70479 78.7081 1.13224C81.9248 0.559689 85.2422 0.956518 88.2258 2.27075C89.0595 2.63205 89.8391 3.10383 90.543 3.67299L90.5783 3.70457V11.1642L90.3825 10.9053C89.2867 9.63291 87.923 8.61014 86.3858 7.90777C84.8485 7.2054 83.1745 6.84021 81.4797 6.8375C80.1455 6.82128 78.8214 7.06585 77.584 7.55702C76.3467 8.0482 75.2207 8.77619 74.2714 9.69882C72.6953 11.2059 71.6849 13.1943 71.4054 15.3394L71.3926 15.431ZM65.7922 15.2162H71.2033C71.5038 13.0547 72.5295 11.0539 74.1174 9.53144C75.0879 8.59042 76.2381 7.8478 77.5017 7.3464C78.7653 6.84501 80.1173 6.59476 81.4797 6.61011C83.1564 6.6162 84.8131 6.96847 86.3428 7.64413C87.8725 8.3198 89.241 9.30382 90.36 10.5326V3.80247C89.9974 3.50244 86.9132 1.09274 81.4797 1.09274C79.4111 1.08052 77.361 1.47577 75.4501 2.25518C73.5391 3.0346 71.806 4.18243 70.3528 5.63107C68.9119 7.02429 67.7751 8.69214 67.0118 10.5326C66.3384 12.0145 65.926 13.5983 65.7922 15.2162V15.2162Z" fill="#FBAE2D"/>
<path d="M99.1152 1.49066V25.7204H112.916V31.2977H93.4474V1.49066H99.1152Z" fill="#FBAE2D"/>
<path d="M113.028 31.4051H93.3416V1.37381H99.2243V25.6035H113.025L113.028 31.4051ZM93.5566 31.1903H112.813V25.8214H99.0125V1.59489H93.5566V31.1903Z" fill="#FBAE2D"/>
<path d="M115.473 20.323V1.50014H121.212V20.2788C121.212 22.4895 121.854 24.3055 122.958 25.3129C124.065 26.4025 125.769 26.9457 127.9 26.9457C130.031 26.9457 131.735 26.4025 132.884 25.3666C134.033 24.3307 134.588 22.5558 134.588 20.2914V1.49066H140.365V20.323C140.375 22.0452 140.048 23.7532 139.403 25.354C138.76 26.7979 137.822 28.0957 136.646 29.1659C134.399 31.2188 131.28 32.3936 127.826 32.3936C124.618 32.4421 121.511 31.2882 119.135 29.1659C117.966 28.088 117.051 26.772 116.452 25.3098C115.778 23.7323 115.445 22.0341 115.473 20.323Z" fill="#FBAE2D"/>
<path d="M127.826 32.4947C124.44 32.4947 121.327 31.3388 119.062 29.2386C117.877 28.1515 116.951 26.8208 116.35 25.3414C115.67 23.7541 115.335 22.045 115.364 20.323V1.37381H121.334V20.2598C121.334 22.42 121.956 24.2234 123.044 25.215C124.113 26.2667 125.795 26.8194 127.913 26.8194C130.031 26.8194 131.684 26.2951 132.823 25.2403C133.902 24.2613 134.492 22.4864 134.492 20.244V1.37381H140.503V20.323C140.499 22.0544 140.161 23.7693 139.505 25.3761C138.853 26.8362 137.901 28.1479 136.71 29.2291C134.412 31.3388 131.254 32.4947 127.826 32.4947ZM115.583 1.59489V20.323C115.55 22.0196 115.878 23.7041 116.545 25.2687C117.135 26.7202 118.043 28.0252 119.206 29.0902C121.43 31.1525 124.489 32.2894 127.82 32.2894C131.151 32.2894 134.296 31.1525 136.565 29.0902C137.738 28.028 138.672 26.7373 139.31 25.3003C139.951 23.7138 140.278 22.021 140.272 20.3135V1.59489H134.71V20.2693C134.71 22.5748 134.094 24.4034 132.971 25.4235C131.79 26.4973 130.083 27.0436 127.913 27.0436C125.743 27.0436 124.001 26.4688 122.894 25.3793C121.764 24.3529 121.116 22.4895 121.116 20.2693V1.59489H115.583Z" fill="#FBAE2D"/>
<path d="M163.698 29.1186C161.852 30.5465 159.569 31.3149 157.221 31.2977H143.376V1.49066H155.007C157.69 1.49066 159.821 1.99282 161.483 2.99713C163.73 4.38042 164.933 6.73011 164.933 9.99885C164.933 13.6466 162.847 15.491 162.847 15.491C162.847 15.491 166.894 16.9595 166.894 21.9053C166.924 23.4999 166.574 25.0793 165.87 26.5162C165.328 27.5164 164.589 28.4009 163.698 29.1186V29.1186ZM148.999 13.814H155.815C156.695 13.8408 157.557 13.5587 158.245 13.0181C158.925 12.3864 159.31 11.4674 159.31 10.2515C159.328 9.88248 159.269 9.51379 159.137 9.1679C159.005 8.82202 158.803 8.5062 158.543 8.23973C157.86 7.52597 156.618 7.14699 154.965 7.14699H148.999V13.814ZM161.313 22.0253C161.31 21.5252 161.17 21.0353 160.907 20.6073C160.644 20.1792 160.269 19.829 159.821 19.5934C159.053 19.1103 158.164 18.8488 157.253 18.8386H148.999V25.6319H157.138C157.917 25.6075 158.683 25.4213 159.384 25.0856C159.976 24.8188 160.475 24.3875 160.821 23.8449C161.166 23.3022 161.343 22.6718 161.329 22.0316L161.313 22.0253Z" fill="#FBAE2D"/>
<path d="M157.221 31.4051H143.267V1.37381H155.007C157.709 1.37381 159.846 1.86965 161.541 2.89606C163.864 4.32041 165.042 6.70801 165.042 9.98938C165.042 13.1476 163.486 14.9793 163.036 15.4436C163.746 15.7678 164.393 16.2126 164.946 16.7574C165.883 17.6701 167.003 19.3029 167.003 21.8958C167.032 23.5079 166.677 25.1044 165.967 26.5573C165.417 27.5702 164.669 28.4655 163.765 29.1912C161.904 30.6418 159.595 31.4229 157.221 31.4051V31.4051ZM143.485 31.1903H157.221C159.548 31.2145 161.814 30.4532 163.64 29.0333V29.0333C164.52 28.325 165.248 27.4523 165.784 26.4657C166.475 25.0422 166.818 23.4793 166.785 21.9021C166.814 20.9828 166.652 20.0674 166.311 19.2113C165.969 18.3552 165.455 17.5762 164.798 16.9216C164.229 16.3548 163.553 15.9022 162.809 15.5889L162.638 15.5257L162.773 15.4088C162.793 15.3899 164.824 13.5487 164.824 9.99568C164.824 6.79327 163.682 4.46885 161.425 3.08556C159.766 2.08125 157.667 1.59173 155.007 1.59173H143.485V31.1903ZM157.138 25.7456H148.889V18.7439H157.266C158.193 18.7547 159.099 19.0229 159.878 19.5177C160.343 19.7626 160.732 20.1268 161.004 20.5716C161.276 21.0164 161.42 21.5252 161.422 22.0442C161.441 22.703 161.265 23.353 160.913 23.9141C160.562 24.4752 160.052 24.923 159.445 25.2024C158.724 25.5439 157.937 25.7292 157.138 25.7456V25.7456ZM149.114 25.5309H157.138C157.904 25.5075 158.656 25.3256 159.346 24.9971C159.915 24.7346 160.395 24.3142 160.725 23.7873C161.055 23.2605 161.221 22.6503 161.204 22.0316C161.2 21.55 161.064 21.0783 160.81 20.6664C160.557 20.2545 160.195 19.9176 159.763 19.6914C159.018 19.2189 158.152 18.9628 157.266 18.9523H149.108L149.114 25.5309ZM155.822 13.9213H148.889V7.03962H154.965C156.653 7.03962 157.917 7.43123 158.62 8.16393C158.89 8.44088 159.099 8.76859 159.237 9.12734C159.374 9.4861 159.436 9.86848 159.419 10.2515C159.419 11.4642 159.047 12.4212 158.319 13.0939C157.61 13.6533 156.723 13.9466 155.815 13.9213H155.822ZM149.114 13.7066H155.822C156.676 13.7333 157.512 13.4602 158.181 12.936C158.861 12.3043 159.208 11.4042 159.208 10.2515C159.224 9.89667 159.168 9.54218 159.042 9.20943C158.915 8.87668 158.722 8.57259 158.473 8.31553C157.808 7.62073 156.598 7.25437 154.971 7.25437H149.108L149.114 13.7066Z" fill="#FBAE2D"/>
</g>
<defs>
<linearGradient id="paint0_linear_3_37" x1="30.7779" y1="19.0376" x2="42.209" y2="-5.60228" gradientUnits="userSpaceOnUse">
<stop offset="0.04" stop-color="#931A1D"/>
<stop offset="0.34" stop-color="#ED2224"/>
<stop offset="0.76" stop-color="#ED2224"/>
<stop offset="0.96" stop-color="#B21E22"/>
<stop offset="0.99" stop-color="#DD2123"/>
<stop offset="1" stop-color="#ED2224"/>
</linearGradient>
<linearGradient id="paint1_linear_3_37" x1="29.6964" y1="11.9285" x2="41.8663" y2="11.9285" gradientUnits="userSpaceOnUse">
<stop stop-color="#C02026"/>
<stop offset="0.04" stop-color="#931A1D"/>
<stop offset="0.19" stop-color="#ED2224"/>
<stop offset="0.76" stop-color="#ED2224"/>
<stop offset="0.96" stop-color="#B21E22"/>
<stop offset="0.99" stop-color="#DD2123"/>
<stop offset="1" stop-color="#ED2224"/>
</linearGradient>
<clipPath id="clip0_3_37">
<rect width="167" height="33" fill="white"/>
</clipPath>
</defs>
</svg>
